<svg xmlns="http://www.w3.org/2000/svg" baseProfile="full" version="1.1" style="fill: none;" width="810px" height="330px"><path style="stroke-width: 15px; stroke-linecap: round; stroke-linejoin: round; stroke: rgb(106, 106, 106); fill: none;" d=""/><path style="stroke-width: 15px; stroke-linecap: round; stroke-linejoin: round; stroke: rgb(74, 74, 74); fill: none;" d=""/><path style="stroke-width: 15px; stroke-linecap: round; stroke-linejoin: round; stroke: rgb(10, 10, 10); fill: none;" d="M255,60 L255,60 L255,180 A60,60 0 0,1 195,240 L195,240 A60,60 0 0,1 135,180 L135,180 A60,60 0 0,1 195,120 L195,120 A60,60 0 0,1 255,180 M315,180 A60,60 0 0,1 375,120 L375,120 A60,60 0 0,1 435,180 L435,180 A60,60 0 0,1 375,240 L375,240 A60,60 0 0,1 315,180 L315,180 L315,300 M495,60 L495,60 L495,240 M555,180 A30,60 0 0,0 585,240 L585,240 A30,60 0 0,0 615,180 L615,180 A30,60 0 0,0 645,240 L645,240 A30,60 0 0,0 675,180 M555,180 L555,180 L555,120 M675,180 L675,180 L675,120 L675,180 "/></svg>